<mxfile host="app.diagrams.net" modified="2021-06-13T05:07:25.271Z" agent="5.0 (Windows NT 10.0; Win64; x64) AppleWebKit/537.36 (KHTML, like Gecko) Chrome/88.0.4324.182 Safari/537.36" etag="h7VG8oBf7qkhGfyHXrVO" version="14.7.7" type="github">
  <diagram id="TwJyZS0UdDZ317z3oDOd" name="Page-1">
    <mxGraphModel dx="1048" dy="688" grid="1" gridSize="10" guides="1" tooltips="1" connect="1" arrows="1" fold="1" page="1" pageScale="1" pageWidth="3300" pageHeight="4681" math="0" shadow="0">
      <root>
        <mxCell id="0" />
        <mxCell id="1" parent="0" />
        <mxCell id="uh6kLg1DYmgG9Bng2NuF-34" value="" style="edgeStyle=orthogonalEdgeStyle;rounded=0;orthogonalLoop=1;jettySize=auto;html=1;" parent="1" source="uh6kLg1DYmgG9Bng2NuF-2" target="uh6kLg1DYmgG9Bng2NuF-3" edge="1">
          <mxGeometry relative="1" as="geometry" />
        </mxCell>
        <mxCell id="uh6kLg1DYmgG9Bng2NuF-2" value="PRINT(&quot;\nWhat do you want to edit?&quot;)" style="rounded=1;whiteSpace=wrap;html=1;" parent="1" vertex="1">
          <mxGeometry x="752" y="260" width="230" height="40" as="geometry" />
        </mxCell>
        <mxCell id="XQiUN0Tv-dYHFXYdUXso-23" value="" style="edgeStyle=orthogonalEdgeStyle;rounded=0;orthogonalLoop=1;jettySize=auto;html=1;endFill=1;" parent="1" source="uh6kLg1DYmgG9Bng2NuF-3" target="XQiUN0Tv-dYHFXYdUXso-22" edge="1">
          <mxGeometry relative="1" as="geometry" />
        </mxCell>
        <mxCell id="uh6kLg1DYmgG9Bng2NuF-3" value="menu = [&quot;Name&quot;, &quot;Date of Birth&quot;, &quot;License&quot;, &quot;Phone Number&quot;, &quot;Email&quot;, &quot;Card&quot;, &quot;Return&quot;]" style="rounded=1;whiteSpace=wrap;html=1;" parent="1" vertex="1">
          <mxGeometry x="752" y="360" width="230" height="70" as="geometry" />
        </mxCell>
        <mxCell id="uh6kLg1DYmgG9Bng2NuF-65" style="edgeStyle=orthogonalEdgeStyle;rounded=0;orthogonalLoop=1;jettySize=auto;html=1;" parent="1" source="uh6kLg1DYmgG9Bng2NuF-5" edge="1">
          <mxGeometry relative="1" as="geometry">
            <Array as="points">
              <mxPoint x="1300" y="870" />
              <mxPoint x="1300" y="450" />
            </Array>
            <mxPoint x="867" y="450" as="targetPoint" />
          </mxGeometry>
        </mxCell>
        <mxCell id="9bb-IMoEd-cl5Jz8k2pv-2" style="edgeStyle=orthogonalEdgeStyle;rounded=0;orthogonalLoop=1;jettySize=auto;html=1;entryX=1;entryY=0.5;entryDx=0;entryDy=0;" parent="1" source="uh6kLg1DYmgG9Bng2NuF-5" target="9bb-IMoEd-cl5Jz8k2pv-1" edge="1">
          <mxGeometry relative="1" as="geometry" />
        </mxCell>
        <mxCell id="uh6kLg1DYmgG9Bng2NuF-5" value="choice == &#39;1&#39; or choice == &#39;2&#39; or choice == &#39;3&#39; or choice == &#39;4&#39; or choice == &#39;5&#39; or choice == &#39;6&#39; or choice == &#39;7&#39;" style="rhombus;whiteSpace=wrap;html=1;" parent="1" vertex="1">
          <mxGeometry x="545.75" y="810" width="642.5" height="120" as="geometry" />
        </mxCell>
        <mxCell id="uh6kLg1DYmgG9Bng2NuF-43" value="" style="edgeStyle=orthogonalEdgeStyle;rounded=0;orthogonalLoop=1;jettySize=auto;html=1;" parent="1" source="uh6kLg1DYmgG9Bng2NuF-6" target="uh6kLg1DYmgG9Bng2NuF-7" edge="1">
          <mxGeometry relative="1" as="geometry" />
        </mxCell>
        <mxCell id="XQiUN0Tv-dYHFXYdUXso-20" value="" style="edgeStyle=orthogonalEdgeStyle;rounded=0;orthogonalLoop=1;jettySize=auto;html=1;endFill=1;" parent="1" source="uh6kLg1DYmgG9Bng2NuF-6" target="XQiUN0Tv-dYHFXYdUXso-3" edge="1">
          <mxGeometry relative="1" as="geometry" />
        </mxCell>
        <mxCell id="uh6kLg1DYmgG9Bng2NuF-6" value="choice == &#39;1&#39;" style="rhombus;whiteSpace=wrap;html=1;" parent="1" vertex="1">
          <mxGeometry x="380" y="1027" width="110" height="100" as="geometry" />
        </mxCell>
        <mxCell id="uh6kLg1DYmgG9Bng2NuF-44" value="" style="edgeStyle=orthogonalEdgeStyle;rounded=0;orthogonalLoop=1;jettySize=auto;html=1;" parent="1" source="uh6kLg1DYmgG9Bng2NuF-7" target="uh6kLg1DYmgG9Bng2NuF-8" edge="1">
          <mxGeometry relative="1" as="geometry" />
        </mxCell>
        <mxCell id="XQiUN0Tv-dYHFXYdUXso-18" value="" style="edgeStyle=orthogonalEdgeStyle;rounded=0;orthogonalLoop=1;jettySize=auto;html=1;endFill=1;" parent="1" source="uh6kLg1DYmgG9Bng2NuF-7" target="XQiUN0Tv-dYHFXYdUXso-5" edge="1">
          <mxGeometry relative="1" as="geometry" />
        </mxCell>
        <mxCell id="uh6kLg1DYmgG9Bng2NuF-7" value="choice == &#39;2&#39;" style="rhombus;whiteSpace=wrap;html=1;" parent="1" vertex="1">
          <mxGeometry x="630" y="1027" width="110" height="100" as="geometry" />
        </mxCell>
        <mxCell id="uh6kLg1DYmgG9Bng2NuF-45" value="" style="edgeStyle=orthogonalEdgeStyle;rounded=0;orthogonalLoop=1;jettySize=auto;html=1;" parent="1" source="uh6kLg1DYmgG9Bng2NuF-8" target="uh6kLg1DYmgG9Bng2NuF-9" edge="1">
          <mxGeometry relative="1" as="geometry" />
        </mxCell>
        <mxCell id="XQiUN0Tv-dYHFXYdUXso-16" value="" style="edgeStyle=orthogonalEdgeStyle;rounded=0;orthogonalLoop=1;jettySize=auto;html=1;endFill=1;" parent="1" source="uh6kLg1DYmgG9Bng2NuF-8" target="XQiUN0Tv-dYHFXYdUXso-6" edge="1">
          <mxGeometry relative="1" as="geometry" />
        </mxCell>
        <mxCell id="uh6kLg1DYmgG9Bng2NuF-8" value="choice == &#39;3&#39;" style="rhombus;whiteSpace=wrap;html=1;" parent="1" vertex="1">
          <mxGeometry x="882" y="1027" width="110" height="100" as="geometry" />
        </mxCell>
        <mxCell id="uh6kLg1DYmgG9Bng2NuF-46" style="edgeStyle=orthogonalEdgeStyle;rounded=0;orthogonalLoop=1;jettySize=auto;html=1;entryX=0;entryY=0.5;entryDx=0;entryDy=0;" parent="1" source="uh6kLg1DYmgG9Bng2NuF-9" target="uh6kLg1DYmgG9Bng2NuF-10" edge="1">
          <mxGeometry relative="1" as="geometry" />
        </mxCell>
        <mxCell id="XQiUN0Tv-dYHFXYdUXso-14" value="" style="edgeStyle=orthogonalEdgeStyle;rounded=0;orthogonalLoop=1;jettySize=auto;html=1;endFill=1;" parent="1" source="uh6kLg1DYmgG9Bng2NuF-9" target="XQiUN0Tv-dYHFXYdUXso-7" edge="1">
          <mxGeometry relative="1" as="geometry" />
        </mxCell>
        <mxCell id="uh6kLg1DYmgG9Bng2NuF-9" value="choice == &#39;4&#39;" style="rhombus;whiteSpace=wrap;html=1;" parent="1" vertex="1">
          <mxGeometry x="1125" y="1027" width="120" height="100" as="geometry" />
        </mxCell>
        <mxCell id="uh6kLg1DYmgG9Bng2NuF-47" style="edgeStyle=orthogonalEdgeStyle;rounded=0;orthogonalLoop=1;jettySize=auto;html=1;entryX=0;entryY=0.5;entryDx=0;entryDy=0;" parent="1" source="uh6kLg1DYmgG9Bng2NuF-10" target="uh6kLg1DYmgG9Bng2NuF-11" edge="1">
          <mxGeometry relative="1" as="geometry" />
        </mxCell>
        <mxCell id="XQiUN0Tv-dYHFXYdUXso-11" value="" style="edgeStyle=orthogonalEdgeStyle;rounded=0;orthogonalLoop=1;jettySize=auto;html=1;endFill=1;" parent="1" source="uh6kLg1DYmgG9Bng2NuF-10" target="XQiUN0Tv-dYHFXYdUXso-8" edge="1">
          <mxGeometry relative="1" as="geometry" />
        </mxCell>
        <mxCell id="uh6kLg1DYmgG9Bng2NuF-10" value="choice == &#39;5&#39;" style="rhombus;whiteSpace=wrap;html=1;" parent="1" vertex="1">
          <mxGeometry x="1380" y="1027" width="110" height="100" as="geometry" />
        </mxCell>
        <mxCell id="XQiUN0Tv-dYHFXYdUXso-10" value="" style="edgeStyle=orthogonalEdgeStyle;rounded=0;orthogonalLoop=1;jettySize=auto;html=1;endFill=1;" parent="1" source="uh6kLg1DYmgG9Bng2NuF-11" target="XQiUN0Tv-dYHFXYdUXso-9" edge="1">
          <mxGeometry relative="1" as="geometry" />
        </mxCell>
        <mxCell id="uh6kLg1DYmgG9Bng2NuF-11" value="choice == &#39;6&#39;" style="rhombus;whiteSpace=wrap;html=1;" parent="1" vertex="1">
          <mxGeometry x="1650" y="1027" width="110" height="100" as="geometry" />
        </mxCell>
        <mxCell id="uh6kLg1DYmgG9Bng2NuF-40" value="" style="edgeStyle=orthogonalEdgeStyle;rounded=0;orthogonalLoop=1;jettySize=auto;html=1;" parent="1" source="uh6kLg1DYmgG9Bng2NuF-12" target="uh6kLg1DYmgG9Bng2NuF-13" edge="1">
          <mxGeometry relative="1" as="geometry" />
        </mxCell>
        <mxCell id="uh6kLg1DYmgG9Bng2NuF-42" style="edgeStyle=orthogonalEdgeStyle;rounded=0;orthogonalLoop=1;jettySize=auto;html=1;exitX=1;exitY=0.5;exitDx=0;exitDy=0;entryX=0;entryY=0.5;entryDx=0;entryDy=0;" parent="1" source="uh6kLg1DYmgG9Bng2NuF-12" target="uh6kLg1DYmgG9Bng2NuF-6" edge="1">
          <mxGeometry relative="1" as="geometry" />
        </mxCell>
        <mxCell id="uh6kLg1DYmgG9Bng2NuF-12" value="choice == &#39;7&#39;" style="rhombus;whiteSpace=wrap;html=1;" parent="1" vertex="1">
          <mxGeometry x="90" y="1027" width="110" height="100" as="geometry" />
        </mxCell>
        <mxCell id="uh6kLg1DYmgG9Bng2NuF-13" value="Return" style="ellipse;whiteSpace=wrap;html=1;" parent="1" vertex="1">
          <mxGeometry x="100" y="1220" width="90" height="60" as="geometry" />
        </mxCell>
        <mxCell id="uh6kLg1DYmgG9Bng2NuF-81" style="edgeStyle=orthogonalEdgeStyle;rounded=0;orthogonalLoop=1;jettySize=auto;html=1;entryX=0;entryY=0.5;entryDx=0;entryDy=0;" parent="1" source="uh6kLg1DYmgG9Bng2NuF-20" target="uh6kLg1DYmgG9Bng2NuF-79" edge="1">
          <mxGeometry relative="1" as="geometry">
            <Array as="points">
              <mxPoint x="435" y="1595" />
            </Array>
          </mxGeometry>
        </mxCell>
        <mxCell id="uh6kLg1DYmgG9Bng2NuF-20" value="user_data[2] = temp" style="rounded=1;whiteSpace=wrap;html=1;" parent="1" vertex="1">
          <mxGeometry x="320" y="1340" width="230" height="70" as="geometry" />
        </mxCell>
        <mxCell id="uh6kLg1DYmgG9Bng2NuF-82" style="edgeStyle=orthogonalEdgeStyle;rounded=0;orthogonalLoop=1;jettySize=auto;html=1;" parent="1" source="uh6kLg1DYmgG9Bng2NuF-21" edge="1">
          <mxGeometry relative="1" as="geometry">
            <mxPoint x="685" y="1600" as="targetPoint" />
          </mxGeometry>
        </mxCell>
        <mxCell id="uh6kLg1DYmgG9Bng2NuF-21" value="user_data[4] = temp" style="rounded=1;whiteSpace=wrap;html=1;" parent="1" vertex="1">
          <mxGeometry x="570" y="1340" width="230" height="70" as="geometry" />
        </mxCell>
        <mxCell id="uh6kLg1DYmgG9Bng2NuF-83" style="edgeStyle=orthogonalEdgeStyle;rounded=0;orthogonalLoop=1;jettySize=auto;html=1;entryX=0.5;entryY=0;entryDx=0;entryDy=0;" parent="1" source="uh6kLg1DYmgG9Bng2NuF-22" target="uh6kLg1DYmgG9Bng2NuF-79" edge="1">
          <mxGeometry relative="1" as="geometry" />
        </mxCell>
        <mxCell id="uh6kLg1DYmgG9Bng2NuF-22" value="user_data[5] = temp" style="rounded=1;whiteSpace=wrap;html=1;" parent="1" vertex="1">
          <mxGeometry x="822" y="1340" width="230" height="70" as="geometry" />
        </mxCell>
        <mxCell id="uh6kLg1DYmgG9Bng2NuF-86" style="edgeStyle=orthogonalEdgeStyle;rounded=0;orthogonalLoop=1;jettySize=auto;html=1;entryX=1;entryY=0.5;entryDx=0;entryDy=0;" parent="1" source="uh6kLg1DYmgG9Bng2NuF-23" target="uh6kLg1DYmgG9Bng2NuF-79" edge="1">
          <mxGeometry relative="1" as="geometry">
            <Array as="points">
              <mxPoint x="1185" y="1595" />
            </Array>
          </mxGeometry>
        </mxCell>
        <mxCell id="uh6kLg1DYmgG9Bng2NuF-23" value="user_data[6] = temp" style="rounded=1;whiteSpace=wrap;html=1;" parent="1" vertex="1">
          <mxGeometry x="1070" y="1340" width="230" height="70" as="geometry" />
        </mxCell>
        <mxCell id="uh6kLg1DYmgG9Bng2NuF-87" style="edgeStyle=orthogonalEdgeStyle;rounded=0;orthogonalLoop=1;jettySize=auto;html=1;" parent="1" edge="1">
          <mxGeometry relative="1" as="geometry">
            <mxPoint x="1185.9999999999995" y="1594" as="targetPoint" />
            <mxPoint x="1431.0000000000005" y="1404" as="sourcePoint" />
            <Array as="points">
              <mxPoint x="1431" y="1594" />
            </Array>
          </mxGeometry>
        </mxCell>
        <mxCell id="uh6kLg1DYmgG9Bng2NuF-24" value="user_data[7] = temp" style="rounded=1;whiteSpace=wrap;html=1;" parent="1" vertex="1">
          <mxGeometry x="1320" y="1340" width="230" height="70" as="geometry" />
        </mxCell>
        <mxCell id="uh6kLg1DYmgG9Bng2NuF-88" style="edgeStyle=orthogonalEdgeStyle;rounded=0;orthogonalLoop=1;jettySize=auto;html=1;" parent="1" edge="1">
          <mxGeometry relative="1" as="geometry">
            <mxPoint x="1426.9999999999995" y="1594" as="targetPoint" />
            <mxPoint x="1702.0000000000005" y="1404" as="sourcePoint" />
            <Array as="points">
              <mxPoint x="1702" y="1594" />
            </Array>
          </mxGeometry>
        </mxCell>
        <mxCell id="uh6kLg1DYmgG9Bng2NuF-25" value="user_data[8] = temp" style="rounded=1;whiteSpace=wrap;html=1;" parent="1" vertex="1">
          <mxGeometry x="1590" y="1340" width="230" height="70" as="geometry" />
        </mxCell>
        <mxCell id="uh6kLg1DYmgG9Bng2NuF-37" value="" style="edgeStyle=orthogonalEdgeStyle;rounded=0;orthogonalLoop=1;jettySize=auto;html=1;" parent="1" source="uh6kLg1DYmgG9Bng2NuF-26" target="uh6kLg1DYmgG9Bng2NuF-29" edge="1">
          <mxGeometry relative="1" as="geometry" />
        </mxCell>
        <mxCell id="uh6kLg1DYmgG9Bng2NuF-26" value="PRINT(&quot;Please Select: &quot;)" style="rounded=1;whiteSpace=wrap;html=1;" parent="1" vertex="1">
          <mxGeometry x="752" y="560" width="230" height="70" as="geometry" />
        </mxCell>
        <mxCell id="uh6kLg1DYmgG9Bng2NuF-28" style="edgeStyle=orthogonalEdgeStyle;rounded=0;orthogonalLoop=1;jettySize=auto;html=1;exitX=0.5;exitY=1;exitDx=0;exitDy=0;" parent="1" source="uh6kLg1DYmgG9Bng2NuF-3" target="uh6kLg1DYmgG9Bng2NuF-3" edge="1">
          <mxGeometry relative="1" as="geometry" />
        </mxCell>
        <mxCell id="uh6kLg1DYmgG9Bng2NuF-38" value="" style="edgeStyle=orthogonalEdgeStyle;rounded=0;orthogonalLoop=1;jettySize=auto;html=1;" parent="1" source="uh6kLg1DYmgG9Bng2NuF-29" target="uh6kLg1DYmgG9Bng2NuF-5" edge="1">
          <mxGeometry relative="1" as="geometry" />
        </mxCell>
        <mxCell id="uh6kLg1DYmgG9Bng2NuF-29" value="READ choice" style="shape=parallelogram;perimeter=parallelogramPerimeter;whiteSpace=wrap;html=1;fixedSize=1;" parent="1" vertex="1">
          <mxGeometry x="757" y="680" width="220" height="60" as="geometry" />
        </mxCell>
        <mxCell id="uh6kLg1DYmgG9Bng2NuF-62" value="True" style="text;html=1;align=center;verticalAlign=middle;resizable=0;points=[];autosize=1;strokeColor=none;" parent="1" vertex="1">
          <mxGeometry x="150" y="1128" width="40" height="20" as="geometry" />
        </mxCell>
        <mxCell id="uh6kLg1DYmgG9Bng2NuF-63" value="False" style="text;html=1;align=center;verticalAlign=middle;resizable=0;points=[];autosize=1;strokeColor=none;" parent="1" vertex="1">
          <mxGeometry x="210" y="1050" width="40" height="20" as="geometry" />
        </mxCell>
        <mxCell id="uh6kLg1DYmgG9Bng2NuF-64" value="True" style="text;html=1;align=center;verticalAlign=middle;resizable=0;points=[];autosize=1;strokeColor=none;" parent="1" vertex="1">
          <mxGeometry x="510" y="848" width="40" height="20" as="geometry" />
        </mxCell>
        <mxCell id="uh6kLg1DYmgG9Bng2NuF-66" value="False" style="text;html=1;align=center;verticalAlign=middle;resizable=0;points=[];autosize=1;strokeColor=none;" parent="1" vertex="1">
          <mxGeometry x="1190" y="848" width="40" height="20" as="geometry" />
        </mxCell>
        <mxCell id="uh6kLg1DYmgG9Bng2NuF-67" value="True" style="text;html=1;align=center;verticalAlign=middle;resizable=0;points=[];autosize=1;strokeColor=none;" parent="1" vertex="1">
          <mxGeometry x="450" y="1130" width="40" height="20" as="geometry" />
        </mxCell>
        <mxCell id="uh6kLg1DYmgG9Bng2NuF-68" value="True" style="text;html=1;align=center;verticalAlign=middle;resizable=0;points=[];autosize=1;strokeColor=none;" parent="1" vertex="1">
          <mxGeometry x="700" y="1130" width="40" height="20" as="geometry" />
        </mxCell>
        <mxCell id="uh6kLg1DYmgG9Bng2NuF-69" value="True" style="text;html=1;align=center;verticalAlign=middle;resizable=0;points=[];autosize=1;strokeColor=none;" parent="1" vertex="1">
          <mxGeometry x="942" y="1130" width="40" height="20" as="geometry" />
        </mxCell>
        <mxCell id="uh6kLg1DYmgG9Bng2NuF-70" value="True" style="text;html=1;align=center;verticalAlign=middle;resizable=0;points=[];autosize=1;strokeColor=none;" parent="1" vertex="1">
          <mxGeometry x="1189.25" y="1130" width="40" height="20" as="geometry" />
        </mxCell>
        <mxCell id="uh6kLg1DYmgG9Bng2NuF-71" value="True" style="text;html=1;align=center;verticalAlign=middle;resizable=0;points=[];autosize=1;strokeColor=none;" parent="1" vertex="1">
          <mxGeometry x="1440" y="1130" width="40" height="20" as="geometry" />
        </mxCell>
        <mxCell id="uh6kLg1DYmgG9Bng2NuF-72" value="True" style="text;html=1;align=center;verticalAlign=middle;resizable=0;points=[];autosize=1;strokeColor=none;" parent="1" vertex="1">
          <mxGeometry x="1710" y="1130" width="40" height="20" as="geometry" />
        </mxCell>
        <mxCell id="uh6kLg1DYmgG9Bng2NuF-73" value="False" style="text;html=1;align=center;verticalAlign=middle;resizable=0;points=[];autosize=1;strokeColor=none;" parent="1" vertex="1">
          <mxGeometry x="506.75" y="1050" width="40" height="20" as="geometry" />
        </mxCell>
        <mxCell id="uh6kLg1DYmgG9Bng2NuF-74" value="False" style="text;html=1;align=center;verticalAlign=middle;resizable=0;points=[];autosize=1;strokeColor=none;" parent="1" vertex="1">
          <mxGeometry x="752" y="1050" width="40" height="20" as="geometry" />
        </mxCell>
        <mxCell id="uh6kLg1DYmgG9Bng2NuF-75" value="False" style="text;html=1;align=center;verticalAlign=middle;resizable=0;points=[];autosize=1;strokeColor=none;" parent="1" vertex="1">
          <mxGeometry x="1000" y="1050" width="40" height="20" as="geometry" />
        </mxCell>
        <mxCell id="uh6kLg1DYmgG9Bng2NuF-77" value="False" style="text;html=1;align=center;verticalAlign=middle;resizable=0;points=[];autosize=1;strokeColor=none;" parent="1" vertex="1">
          <mxGeometry x="1250" y="1050" width="40" height="20" as="geometry" />
        </mxCell>
        <mxCell id="uh6kLg1DYmgG9Bng2NuF-78" value="False" style="text;html=1;align=center;verticalAlign=middle;resizable=0;points=[];autosize=1;strokeColor=none;" parent="1" vertex="1">
          <mxGeometry x="1500" y="1050" width="40" height="20" as="geometry" />
        </mxCell>
        <mxCell id="rcvjrANKxjENXKEB_4y8-32" style="edgeStyle=orthogonalEdgeStyle;rounded=0;orthogonalLoop=1;jettySize=auto;html=1;entryX=0.5;entryY=0;entryDx=0;entryDy=0;" edge="1" parent="1" source="uh6kLg1DYmgG9Bng2NuF-79" target="rcvjrANKxjENXKEB_4y8-18">
          <mxGeometry relative="1" as="geometry" />
        </mxCell>
        <mxCell id="uh6kLg1DYmgG9Bng2NuF-79" value="data_clients[login_index] = user_data" style="rounded=1;whiteSpace=wrap;html=1;" parent="1" vertex="1">
          <mxGeometry x="822" y="1560" width="230" height="70" as="geometry" />
        </mxCell>
        <mxCell id="uh6kLg1DYmgG9Bng2NuF-90" value="Return" style="ellipse;whiteSpace=wrap;html=1;" parent="1" vertex="1">
          <mxGeometry x="1160" y="1815" width="90" height="60" as="geometry" />
        </mxCell>
        <mxCell id="XQiUN0Tv-dYHFXYdUXso-2" value="" style="edgeStyle=orthogonalEdgeStyle;rounded=0;orthogonalLoop=1;jettySize=auto;html=1;endFill=1;" parent="1" source="XQiUN0Tv-dYHFXYdUXso-1" target="uh6kLg1DYmgG9Bng2NuF-2" edge="1">
          <mxGeometry relative="1" as="geometry" />
        </mxCell>
        <mxCell id="XQiUN0Tv-dYHFXYdUXso-1" value="FUNCTION edit_profile(user_data, data_clients, login_index, space_clients)" style="shape=process;whiteSpace=wrap;html=1;backgroundOutline=1;" parent="1" vertex="1">
          <mxGeometry x="722" y="90" width="290" height="100" as="geometry" />
        </mxCell>
        <mxCell id="XQiUN0Tv-dYHFXYdUXso-21" value="" style="edgeStyle=orthogonalEdgeStyle;rounded=0;orthogonalLoop=1;jettySize=auto;html=1;endFill=1;" parent="1" source="XQiUN0Tv-dYHFXYdUXso-3" target="uh6kLg1DYmgG9Bng2NuF-20" edge="1">
          <mxGeometry relative="1" as="geometry" />
        </mxCell>
        <mxCell id="XQiUN0Tv-dYHFXYdUXso-3" value="temp = default.validation_ length(space_clients[2])" style="shape=process;whiteSpace=wrap;html=1;backgroundOutline=1;" parent="1" vertex="1">
          <mxGeometry x="332.5" y="1195" width="205" height="70" as="geometry" />
        </mxCell>
        <mxCell id="XQiUN0Tv-dYHFXYdUXso-19" value="" style="edgeStyle=orthogonalEdgeStyle;rounded=0;orthogonalLoop=1;jettySize=auto;html=1;endFill=1;" parent="1" source="XQiUN0Tv-dYHFXYdUXso-5" target="uh6kLg1DYmgG9Bng2NuF-21" edge="1">
          <mxGeometry relative="1" as="geometry" />
        </mxCell>
        <mxCell id="XQiUN0Tv-dYHFXYdUXso-5" value="temp = default.validation_date()" style="shape=process;whiteSpace=wrap;html=1;backgroundOutline=1;" parent="1" vertex="1">
          <mxGeometry x="582.5" y="1195" width="205" height="70" as="geometry" />
        </mxCell>
        <mxCell id="XQiUN0Tv-dYHFXYdUXso-17" value="" style="edgeStyle=orthogonalEdgeStyle;rounded=0;orthogonalLoop=1;jettySize=auto;html=1;endFill=1;" parent="1" source="XQiUN0Tv-dYHFXYdUXso-6" target="uh6kLg1DYmgG9Bng2NuF-22" edge="1">
          <mxGeometry relative="1" as="geometry" />
        </mxCell>
        <mxCell id="XQiUN0Tv-dYHFXYdUXso-6" value="temp = default.validation_ length(space_clients[5])" style="shape=process;whiteSpace=wrap;html=1;backgroundOutline=1;" parent="1" vertex="1">
          <mxGeometry x="834.5" y="1190" width="205" height="70" as="geometry" />
        </mxCell>
        <mxCell id="XQiUN0Tv-dYHFXYdUXso-15" value="" style="edgeStyle=orthogonalEdgeStyle;rounded=0;orthogonalLoop=1;jettySize=auto;html=1;endFill=1;" parent="1" source="XQiUN0Tv-dYHFXYdUXso-7" target="uh6kLg1DYmgG9Bng2NuF-23" edge="1">
          <mxGeometry relative="1" as="geometry" />
        </mxCell>
        <mxCell id="XQiUN0Tv-dYHFXYdUXso-7" value="temp = default.validation_ number(space_clients[6])" style="shape=process;whiteSpace=wrap;html=1;backgroundOutline=1;" parent="1" vertex="1">
          <mxGeometry x="1082.5" y="1190" width="205" height="70" as="geometry" />
        </mxCell>
        <mxCell id="XQiUN0Tv-dYHFXYdUXso-12" value="" style="edgeStyle=orthogonalEdgeStyle;rounded=0;orthogonalLoop=1;jettySize=auto;html=1;endFill=1;" parent="1" source="XQiUN0Tv-dYHFXYdUXso-8" target="uh6kLg1DYmgG9Bng2NuF-24" edge="1">
          <mxGeometry relative="1" as="geometry" />
        </mxCell>
        <mxCell id="XQiUN0Tv-dYHFXYdUXso-8" value="&lt;div&gt;&amp;nbsp; &amp;nbsp; temp =default.validation_ email(space_clients[7])&lt;/div&gt;" style="shape=process;whiteSpace=wrap;html=1;backgroundOutline=1;" parent="1" vertex="1">
          <mxGeometry x="1332.5" y="1190" width="205" height="70" as="geometry" />
        </mxCell>
        <mxCell id="XQiUN0Tv-dYHFXYdUXso-13" value="" style="edgeStyle=orthogonalEdgeStyle;rounded=0;orthogonalLoop=1;jettySize=auto;html=1;endFill=1;" parent="1" source="XQiUN0Tv-dYHFXYdUXso-9" target="uh6kLg1DYmgG9Bng2NuF-25" edge="1">
          <mxGeometry relative="1" as="geometry" />
        </mxCell>
        <mxCell id="XQiUN0Tv-dYHFXYdUXso-9" value="temp = default.validation_ number(16)" style="shape=process;whiteSpace=wrap;html=1;backgroundOutline=1;" parent="1" vertex="1">
          <mxGeometry x="1603" y="1190" width="205" height="70" as="geometry" />
        </mxCell>
        <mxCell id="XQiUN0Tv-dYHFXYdUXso-24" value="" style="edgeStyle=orthogonalEdgeStyle;rounded=0;orthogonalLoop=1;jettySize=auto;html=1;endFill=1;" parent="1" source="XQiUN0Tv-dYHFXYdUXso-22" target="uh6kLg1DYmgG9Bng2NuF-26" edge="1">
          <mxGeometry relative="1" as="geometry" />
        </mxCell>
        <mxCell id="XQiUN0Tv-dYHFXYdUXso-22" value="default.general_menu(menu)" style="shape=process;whiteSpace=wrap;html=1;backgroundOutline=1;" parent="1" vertex="1">
          <mxGeometry x="747" y="460" width="240" height="70" as="geometry" />
        </mxCell>
        <mxCell id="9bb-IMoEd-cl5Jz8k2pv-3" style="edgeStyle=orthogonalEdgeStyle;rounded=0;orthogonalLoop=1;jettySize=auto;html=1;entryX=0.5;entryY=0;entryDx=0;entryDy=0;" parent="1" source="9bb-IMoEd-cl5Jz8k2pv-1" target="uh6kLg1DYmgG9Bng2NuF-12" edge="1">
          <mxGeometry relative="1" as="geometry" />
        </mxCell>
        <mxCell id="9bb-IMoEd-cl5Jz8k2pv-1" value="BREAK" style="rounded=1;whiteSpace=wrap;html=1;" parent="1" vertex="1">
          <mxGeometry x="235" y="850" width="145" height="40" as="geometry" />
        </mxCell>
        <mxCell id="rcvjrANKxjENXKEB_4y8-3" value="" style="group" vertex="1" connectable="0" parent="1">
          <mxGeometry x="631" y="910" width="230" height="90" as="geometry" />
        </mxCell>
        <mxCell id="rcvjrANKxjENXKEB_4y8-4" value="" style="shape=hexagon;perimeter=hexagonPerimeter2;whiteSpace=wrap;html=1;fixedSize=1;" vertex="1" parent="rcvjrANKxjENXKEB_4y8-3">
          <mxGeometry width="230.00000000000003" height="90" as="geometry" />
        </mxCell>
        <mxCell id="rcvjrANKxjENXKEB_4y8-5" value="line" style="text;html=1;strokeColor=none;fillColor=none;align=center;verticalAlign=middle;whiteSpace=wrap;rounded=0;" vertex="1" parent="rcvjrANKxjENXKEB_4y8-3">
          <mxGeometry x="87.61904761904762" width="43.80952380952381" height="20" as="geometry" />
        </mxCell>
        <mxCell id="rcvjrANKxjENXKEB_4y8-6" value="0" style="text;html=1;strokeColor=none;fillColor=none;align=center;verticalAlign=middle;whiteSpace=wrap;rounded=0;" vertex="1" parent="rcvjrANKxjENXKEB_4y8-3">
          <mxGeometry x="10.952380952380953" y="35" width="43.80952380952381" height="20" as="geometry" />
        </mxCell>
        <mxCell id="rcvjrANKxjENXKEB_4y8-7" value="1" style="text;html=1;strokeColor=none;fillColor=none;align=center;verticalAlign=middle;whiteSpace=wrap;rounded=0;" vertex="1" parent="rcvjrANKxjENXKEB_4y8-3">
          <mxGeometry x="87.61904761904762" y="70" width="43.80952380952381" height="20" as="geometry" />
        </mxCell>
        <mxCell id="rcvjrANKxjENXKEB_4y8-8" value="data_clients" style="text;html=1;strokeColor=none;fillColor=none;align=center;verticalAlign=middle;whiteSpace=wrap;rounded=0;" vertex="1" parent="rcvjrANKxjENXKEB_4y8-3">
          <mxGeometry x="164.2857142857143" y="35" width="43.80952380952381" height="20" as="geometry" />
        </mxCell>
        <mxCell id="rcvjrANKxjENXKEB_4y8-9" value="" style="edgeStyle=orthogonalEdgeStyle;rounded=0;orthogonalLoop=1;jettySize=auto;html=1;" edge="1" parent="1" source="rcvjrANKxjENXKEB_4y8-10" target="rcvjrANKxjENXKEB_4y8-12">
          <mxGeometry relative="1" as="geometry" />
        </mxCell>
        <mxCell id="rcvjrANKxjENXKEB_4y8-10" value="temp = &quot;,&quot;.join(line)" style="rounded=1;whiteSpace=wrap;html=1;" vertex="1" parent="1">
          <mxGeometry x="631" y="1050" width="230" height="40" as="geometry" />
        </mxCell>
        <mxCell id="rcvjrANKxjENXKEB_4y8-11" style="edgeStyle=orthogonalEdgeStyle;rounded=0;orthogonalLoop=1;jettySize=auto;html=1;entryX=0.5;entryY=1;entryDx=0;entryDy=0;" edge="1" parent="1" source="rcvjrANKxjENXKEB_4y8-12" target="rcvjrANKxjENXKEB_4y8-15">
          <mxGeometry relative="1" as="geometry" />
        </mxCell>
        <mxCell id="rcvjrANKxjENXKEB_4y8-12" value="clients_file.write(temp + &#39;\n&#39;)" style="rounded=1;whiteSpace=wrap;html=1;" vertex="1" parent="1">
          <mxGeometry x="631" y="1140" width="230" height="40" as="geometry" />
        </mxCell>
        <mxCell id="rcvjrANKxjENXKEB_4y8-13" value="" style="edgeStyle=orthogonalEdgeStyle;rounded=0;orthogonalLoop=1;jettySize=auto;html=1;" edge="1" parent="1" source="rcvjrANKxjENXKEB_4y8-4" target="rcvjrANKxjENXKEB_4y8-10">
          <mxGeometry relative="1" as="geometry" />
        </mxCell>
        <mxCell id="rcvjrANKxjENXKEB_4y8-14" style="edgeStyle=orthogonalEdgeStyle;rounded=0;orthogonalLoop=1;jettySize=auto;html=1;entryX=0;entryY=0.5;entryDx=0;entryDy=0;" edge="1" parent="1" target="rcvjrANKxjENXKEB_4y8-4">
          <mxGeometry relative="1" as="geometry">
            <mxPoint x="586" y="955" as="sourcePoint" />
          </mxGeometry>
        </mxCell>
        <mxCell id="rcvjrANKxjENXKEB_4y8-15" value="line" style="ellipse;whiteSpace=wrap;html=1;aspect=fixed;" vertex="1" parent="1">
          <mxGeometry x="550" y="925" width="40" height="40" as="geometry" />
        </mxCell>
        <mxCell id="rcvjrANKxjENXKEB_4y8-17" style="edgeStyle=orthogonalEdgeStyle;rounded=0;orthogonalLoop=1;jettySize=auto;html=1;entryX=0.5;entryY=0;entryDx=0;entryDy=0;" edge="1" parent="1" source="rcvjrANKxjENXKEB_4y8-18" target="rcvjrANKxjENXKEB_4y8-21">
          <mxGeometry relative="1" as="geometry" />
        </mxCell>
        <mxCell id="rcvjrANKxjENXKEB_4y8-18" value="WITH OPEN(&quot;./data/clients.txt&quot;,  mode = &#39;w&#39;) AS clients_file:" style="rounded=1;whiteSpace=wrap;html=1;" vertex="1" parent="1">
          <mxGeometry x="822" y="1700" width="230" height="40" as="geometry" />
        </mxCell>
        <mxCell id="rcvjrANKxjENXKEB_4y8-19" value="" style="group" vertex="1" connectable="0" parent="1">
          <mxGeometry x="827" y="1800" width="230" height="90" as="geometry" />
        </mxCell>
        <mxCell id="rcvjrANKxjENXKEB_4y8-20" value="" style="shape=hexagon;perimeter=hexagonPerimeter2;whiteSpace=wrap;html=1;fixedSize=1;" vertex="1" parent="rcvjrANKxjENXKEB_4y8-19">
          <mxGeometry width="230.00000000000003" height="90" as="geometry" />
        </mxCell>
        <mxCell id="rcvjrANKxjENXKEB_4y8-21" value="line" style="text;html=1;strokeColor=none;fillColor=none;align=center;verticalAlign=middle;whiteSpace=wrap;rounded=0;" vertex="1" parent="rcvjrANKxjENXKEB_4y8-19">
          <mxGeometry x="87.61904761904762" width="43.80952380952381" height="20" as="geometry" />
        </mxCell>
        <mxCell id="rcvjrANKxjENXKEB_4y8-22" value="0" style="text;html=1;strokeColor=none;fillColor=none;align=center;verticalAlign=middle;whiteSpace=wrap;rounded=0;" vertex="1" parent="rcvjrANKxjENXKEB_4y8-19">
          <mxGeometry x="10.952380952380953" y="35" width="43.80952380952381" height="20" as="geometry" />
        </mxCell>
        <mxCell id="rcvjrANKxjENXKEB_4y8-23" value="1" style="text;html=1;strokeColor=none;fillColor=none;align=center;verticalAlign=middle;whiteSpace=wrap;rounded=0;" vertex="1" parent="rcvjrANKxjENXKEB_4y8-19">
          <mxGeometry x="87.61904761904762" y="70" width="43.80952380952381" height="20" as="geometry" />
        </mxCell>
        <mxCell id="rcvjrANKxjENXKEB_4y8-24" value="data_clients" style="text;html=1;strokeColor=none;fillColor=none;align=center;verticalAlign=middle;whiteSpace=wrap;rounded=0;" vertex="1" parent="rcvjrANKxjENXKEB_4y8-19">
          <mxGeometry x="164.2857142857143" y="35" width="43.80952380952381" height="20" as="geometry" />
        </mxCell>
        <mxCell id="rcvjrANKxjENXKEB_4y8-25" value="" style="edgeStyle=orthogonalEdgeStyle;rounded=0;orthogonalLoop=1;jettySize=auto;html=1;" edge="1" parent="1" source="rcvjrANKxjENXKEB_4y8-26" target="rcvjrANKxjENXKEB_4y8-28">
          <mxGeometry relative="1" as="geometry" />
        </mxCell>
        <mxCell id="rcvjrANKxjENXKEB_4y8-26" value="temp = &quot;,&quot;.join(line)" style="rounded=1;whiteSpace=wrap;html=1;" vertex="1" parent="1">
          <mxGeometry x="827" y="1940" width="230" height="40" as="geometry" />
        </mxCell>
        <mxCell id="rcvjrANKxjENXKEB_4y8-27" style="edgeStyle=orthogonalEdgeStyle;rounded=0;orthogonalLoop=1;jettySize=auto;html=1;entryX=0.5;entryY=1;entryDx=0;entryDy=0;" edge="1" parent="1" source="rcvjrANKxjENXKEB_4y8-28" target="rcvjrANKxjENXKEB_4y8-31">
          <mxGeometry relative="1" as="geometry" />
        </mxCell>
        <mxCell id="rcvjrANKxjENXKEB_4y8-28" value="clients_file.write(temp + &#39;\n&#39;)" style="rounded=1;whiteSpace=wrap;html=1;" vertex="1" parent="1">
          <mxGeometry x="827" y="2030" width="230" height="40" as="geometry" />
        </mxCell>
        <mxCell id="rcvjrANKxjENXKEB_4y8-29" value="" style="edgeStyle=orthogonalEdgeStyle;rounded=0;orthogonalLoop=1;jettySize=auto;html=1;" edge="1" parent="1" source="rcvjrANKxjENXKEB_4y8-20" target="rcvjrANKxjENXKEB_4y8-26">
          <mxGeometry relative="1" as="geometry" />
        </mxCell>
        <mxCell id="rcvjrANKxjENXKEB_4y8-30" style="edgeStyle=orthogonalEdgeStyle;rounded=0;orthogonalLoop=1;jettySize=auto;html=1;entryX=0;entryY=0.5;entryDx=0;entryDy=0;" edge="1" parent="1" target="rcvjrANKxjENXKEB_4y8-20">
          <mxGeometry relative="1" as="geometry">
            <mxPoint x="782" y="1845" as="sourcePoint" />
          </mxGeometry>
        </mxCell>
        <mxCell id="rcvjrANKxjENXKEB_4y8-31" value="line" style="ellipse;whiteSpace=wrap;html=1;aspect=fixed;" vertex="1" parent="1">
          <mxGeometry x="747" y="1825" width="40" height="40" as="geometry" />
        </mxCell>
        <mxCell id="rcvjrANKxjENXKEB_4y8-33" style="edgeStyle=orthogonalEdgeStyle;rounded=0;orthogonalLoop=1;jettySize=auto;html=1;entryX=0;entryY=0.5;entryDx=0;entryDy=0;" edge="1" parent="1" source="rcvjrANKxjENXKEB_4y8-20" target="uh6kLg1DYmgG9Bng2NuF-90">
          <mxGeometry relative="1" as="geometry" />
        </mxCell>
      </root>
    </mxGraphModel>
  </diagram>
</mxfile>
